# xmcd
#
# Track frame offsets: 
#        150
#        13752
#        27861
#        41421
#        54524
#        68174
#        80103
#        92095
#        104627
#        118113
#        131125
#        145994
#        160623
#        173471
#        183861
#        198932
#        212836
#        225783
#        240052
#        252459
#        266314
#        278898
#        292255
#        306128
#        315898
#
# Disc length: 4394 seconds
#
# Revision: 3
# Processed by: cddbd v1.5.2PL0 Copyright (c) Steve Scherf et al.
# Submitted via: ExactAudioCopy v0.95b4
#
DISCID=55112819
DTITLE=Billie Holiday - Deja Vu Definitive Gold Disc 4 [2004 Retro]
DYEAR=2006
DGENRE=Jazz
TTITLE0=Night And Day
TTITLE1=This Year's Kisses
TTITLE2=You Showed Me The Way
TTITLE3=A Sailboat In The Moonlight
TTITLE4=The Mood That I'm In
TTITLE5=Me, Myself And I
TTITLE6=Let's Call The Whole Thing Off
TTITLE7=I Can't Believe That You're In Love With Me
TTITLE8=You're Just A No Account
TTITLE9=Without Your Love
TTITLE10=Pennies From Heaven
TTITLE11=If You Were Mine
TTITLE12=Falling In Love Again
TTITLE13=Romance In The Dark
TTITLE14=It's Like Reaching For The Moon
TTITLE15=Moanin' Low
TTITLE16=You Got To My Head
TTITLE17=I'll Get By
TTITLE18=It's Too Hot For Words
TTITLE19=My Man
TTITLE20=Sugar
TTITLE21=I Must Have That Man
TTITLE22=Getting Some Fun Out Of Life
TTITLE23=I'm Gonna Lock My Heart And Throw Away The Key
TTITLE24=Miss Brown To You
EXTD=YEAR: 2004
EXTT0=
EXTT1=
EXTT2=
EXTT3=
EXTT4=
EXTT5=
EXTT6=
EXTT7=
EXTT8=
EXTT9=
EXTT10=
EXTT11=
EXTT12=
EXTT13=
EXTT14=
EXTT15=
EXTT16=
EXTT17=
EXTT18=
EXTT19=
EXTT20=
EXTT21=
EXTT22=
EXTT23=
EXTT24=
PLAYORDER=
